<?xml version="1.0" standalone="no"?>
<!DOCTYPE svg PUBLIC "-//W3C//DTD SVG 20010904//EN"
 "http://www.w3.org/TR/2001/REC-SVG-20010904/DTD/svg10.dtd">
<svg version="1.0" xmlns="http://www.w3.org/2000/svg"
 width="700.000000pt" height="700.000000pt" viewBox="0 0 700.000000 700.000000"
 preserveAspectRatio="xMidYMid meet">
<metadata>
Created by potrace 1.11, written by Peter Selinger 2001-2013
</metadata>
<g transform="translate(0.000000,700.000000) scale(0.100000,-0.100000)"
fill="#000000" stroke="none">
<path d="M0 3500 l0 -3500 3500 0 3500 0 0 3500 0 3500 -3500 0 -3500 0 0
-3500z m6950 0 l0 -3450 -3450 0 -3450 0 0 3450 0 3450 3450 0 3450 0 0 -3450z"/>
<path d="M2230 6009 l0 -380 48 3 47 3 3 378 2 377 -50 0 -50 0 0 -381z"/>
<path d="M4460 6010 l0 -380 45 0 45 0 0 380 0 380 -45 0 -45 0 0 -380z"/>
<path d="M4730 6330 l0 -60 50 0 50 0 0 60 0 60 -50 0 -50 0 0 -60z"/>
<path d="M5360 6248 c0 -135 -1 -141 -16 -119 -41 57 -169 79 -243 41 -85 -43
-131 -136 -131 -265 0 -90 20 -159 62 -209 75 -92 223 -102 303 -22 l25 25 0
-35 0 -35 48 3 47 3 3 378 2 377 -50 0 -50 0 0 -142z m-80 -155 c43 -25 72
-86 78 -162 6 -84 -11 -143 -52 -188 -27 -30 -41 -36 -82 -40 -101 -9 -154 61
-154 202 0 97 23 155 72 185 40 24 100 26 138 3z"/>
<path d="M1135 6357 c-97 -32 -158 -87 -202 -182 -26 -55 -28 -69 -28 -180 0
-109 2 -125 26 -176 36 -76 89 -133 156 -166 103 -50 273 -41 371 19 29 18 32
24 32 69 0 27 -2 49 -5 49 -2 0 -26 -14 -52 -30 -61 -39 -102 -50 -183 -50
-151 1 -227 85 -238 261 -11 202 74 309 248 309 77 0 129 -17 190 -60 15 -11
31 -20 35 -20 3 0 5 24 3 53 l-3 52 -60 30 c-51 26 -72 30 -155 32 -59 2 -110
-2 -135 -10z"/>
<path d="M3946 6355 c-109 -39 -165 -138 -137 -243 23 -84 69 -115 228 -152
110 -26 141 -43 160 -87 26 -62 2 -118 -64 -152 -41 -21 -166 -13 -240 14 -37
14 -72 27 -78 28 -6 1 -10 -20 -10 -48 l0 -49 60 -20 c76 -25 261 -29 315 -7
93 38 133 98 133 196 1 131 -64 185 -277 230 -96 21 -126 45 -126 104 0 109
149 152 305 87 21 -9 41 -16 46 -16 5 0 9 22 9 49 l0 49 -69 16 c-86 20 -202
20 -255 1z"/>
<path d="M1720 6163 c-97 -51 -141 -156 -127 -306 12 -137 94 -224 219 -234
91 -7 144 10 200 66 60 60 82 131 76 242 -6 107 -43 181 -112 224 -41 25 -62
31 -125 33 -68 3 -82 1 -131 -25z m190 -76 c57 -38 75 -80 75 -177 0 -137 -48
-205 -145 -205 -88 0 -140 61 -148 173 -5 81 9 140 45 182 46 55 116 66 173
27z"/>
<path d="M2620 6177 c-50 -16 -114 -84 -133 -142 -21 -60 -22 -185 -3 -248 29
-97 101 -155 206 -164 178 -17 294 115 277 316 -3 37 -12 84 -20 103 -21 50
-76 108 -122 129 -45 21 -149 24 -205 6z m170 -89 c53 -37 75 -89 75 -183 0
-66 -5 -88 -25 -125 -64 -116 -220 -98 -259 29 -14 49 -13 157 2 196 38 97
131 134 207 83z"/>
<path d="M3290 6179 c-14 -6 -40 -24 -57 -42 l-33 -31 0 37 0 37 -45 0 -45 0
0 -275 0 -275 45 0 45 0 0 163 c0 89 5 180 11 202 25 91 113 134 203 99 13 -5
16 2 16 45 l0 51 -57 -1 c-32 0 -69 -5 -83 -10z"/>
<path d="M5761 6176 c-55 -20 -112 -75 -139 -135 -35 -76 -36 -191 -2 -269 53
-122 195 -178 360 -142 91 21 100 28 100 76 0 24 -2 44 -4 44 -2 0 -25 -10
-52 -22 -68 -30 -194 -32 -243 -3 -44 26 -68 60 -80 113 l-9 42 205 0 206 0
-5 73 c-7 110 -55 186 -140 221 -44 19 -148 20 -197 2z m176 -86 c36 -22 63
-66 63 -105 l0 -25 -151 0 -151 0 6 31 c19 98 146 152 233 99z"/>
<path d="M4730 5904 l0 -275 48 3 47 3 3 273 2 272 -50 0 -50 0 0 -276z"/>
<path d="M1040 3050 l0 -1830 2460 0 2460 0 0 1830 0 1830 -2460 0 -2460 0 0
-1830z"/>
</g>
</svg>
